<svg width="90" height="90" viewBox="0 0 90 90" fill="none" xmlns="http://www.w3.org/2000/svg">
    <path d="M63.9 19.5C62.6 19.5 61.4 19.2 60.3 18.5C58.6 17.5 57.4 16 56.9 14.1C56.4 12.2 56.7 10.3 57.6 8.6C58.9 6.4 61.3 5 63.9 5C65.2 5 66.4 5.3 67.5 6C71 8 72.1 12.4 70.1 15.9C68.9 18.1 66.5 19.5 63.9 19.5Z"
          fill="#5B7EBE"/>
    <path d="M44.9998 14.5C40.9998 14.5 37.7998 11.3 37.7998 7.3C37.7998 3.2 40.9998 0 44.9998 0C48.9998 0 52.1998 3.2 52.1998 7.2C52.1998 11.2 48.9998 14.5 44.9998 14.5Z"
          fill="#5B7EBE"/>
    <path d="M77.7 33.3C75.1 33.3 72.7 31.9001 71.4 29.7001C70.4 28.0001 70.2 26.1001 70.7 24.2001C71.2 22.3001 72.4 20.8 74.1 19.8C75.2 19.2 76.4 18.8 77.7 18.8C80.3 18.8 82.7 20.2 84 22.4C85 24.1 85.2 26 84.7 27.9C84.2 29.8 83 31.3 81.3 32.3C80.2 33 79 33.3 77.7 33.3Z"
          fill="#5B7EBE"/>
    <path d="M82.8001 52.2001C78.8001 52.2001 75.6001 49 75.6001 45C75.6001 41 78.8001 37.8 82.8001 37.8C86.8001 37.8 90.0001 41 90.0001 45C90.0001 49 86.8001 52.2001 82.8001 52.2001Z"
          fill="#5B7EBE"/>
    <path d="M77.6999 71.1C76.3999 71.1 75.1999 70.8 74.0999 70.1C72.3999 69.1 71.1999 67.6 70.6999 65.7C70.1999 63.8 70.4999 61.9 71.3999 60.2C72.6999 58 75.0999 56.6 77.6999 56.6C78.9999 56.6 80.1999 56.9 81.2999 57.6C84.7999 59.6 85.8999 64 83.8999 67.5C82.6999 69.7 80.2998 71.1 77.6999 71.1Z"
          fill="#5B7EBE"/>
    <path d="M63.8999 84.9C61.2999 84.9 58.8999 83.5 57.5999 81.3C55.5999 77.8 56.7999 73.4 60.1999 71.4C61.2999 70.8 62.4999 70.4 63.7999 70.4C66.3999 70.4 68.7999 71.8 70.0999 74C71.0999 75.7 71.2999 77.6 70.7999 79.5C70.2999 81.4 69.0999 82.9 67.3999 83.9C66.3999 84.6 65.1999 84.9 63.8999 84.9Z"
          fill="#5B7EBE"/>
    <path d="M44.9998 90C40.9998 90 37.7998 86.8 37.7998 82.8C37.7998 80.9 38.5998 79.1 39.8998 77.7C41.2998 76.3 43.0998 75.6 44.9998 75.6C48.9998 75.6 52.1998 78.8 52.1998 82.8C52.1998 86.8 48.9998 90 44.9998 90Z"
          fill="#5B7EBE"/>
    <path d="M26.0999 84.9C24.7999 84.9 23.5999 84.6 22.4999 83.9C18.9999 81.9 17.8999 77.5 19.8999 74C21.1999 71.8 23.5999 70.4 26.1999 70.4C27.4999 70.4 28.6999 70.7 29.7999 71.4C33.2999 73.4 34.3999 77.8 32.3999 81.3C31.0999 83.6 28.6999 84.9 26.0999 84.9Z"
          fill="#5B7EBE"/>
    <path d="M12.2998 71.1C9.6998 71.1 7.2998 69.7 5.9998 67.5C3.9998 64 5.1998 59.6 8.5998 57.6C9.6998 57 10.8998 56.6 12.1998 56.6C14.7998 56.6 17.1998 58 18.4998 60.2C20.4998 63.7 19.2998 68.1 15.8998 70.1C14.7998 70.8 13.5998 71.1 12.2998 71.1Z"
          fill="#5B7EBE"/>
    <path d="M7.2 52.2001C3.2 52.2001 0 49 0 45C0 41 3.2 37.8 7.2 37.8C9.1 37.8 10.9 38.6001 12.3 39.9001C13.7 41.3001 14.4 43.1 14.4 45C14.5 49 11.2 52.2001 7.2 52.2001Z"
          fill="#5B7EBE"/>
    <path d="M12.3002 33.3C11.0002 33.3 9.80016 33 8.70016 32.3C5.20016 30.4 4.00016 26 6.00016 22.5C7.30016 20.3 9.70016 18.9 12.3002 18.9C13.6002 18.9 14.8002 19.2 15.9002 19.9C17.6002 20.9 18.8002 22.4 19.3002 24.3C19.8002 26.2 19.5002 28.1 18.6002 29.8C17.3002 32 14.9002 33.3 12.3002 33.3Z"
          fill="#5B7EBE"/>
    <path d="M26.1 19.5C23.5 19.5 21.1 18.1 19.8 15.9C17.9 12.5 19 8 22.5 6C23.6 5.4 24.8 5 26.1 5C28.7 5 31.1 6.4 32.4 8.6C33.4 10.3 33.6 12.2 33.1 14.1C32.6 16 31.4 17.5 29.7 18.5C28.6 19.2 27.4 19.5 26.1 19.5Z"
          fill="#5B7EBE"/>
</svg>
